<svg width="21" height="20" viewBox="0 0 21 20" fill="none" xmlns="http://www.w3.org/2000/svg">
<mask id="mask0_40000048_80455" style="mask-type:alpha" maskUnits="userSpaceOnUse" x="0" y="0" width="21" height="20">
<rect x="0.5" width="20" height="20" fill="#D9D9D9"/>
</mask>
<g mask="url(#mask0_40000048_80455)">
<path d="M5.37484 14.25C6.08317 13.7083 6.87484 13.2812 7.74984 12.9687C8.62484 12.6562 9.5415 12.5 10.4998 12.5C11.4582 12.5 12.3748 12.6562 13.2498 12.9687C14.1248 13.2812 14.9165 13.7083 15.6248 14.25C16.1109 13.6805 16.4894 13.0347 16.7603 12.3125C17.0311 11.5903 17.1665 10.8194 17.1665 9.99999C17.1665 8.15277 16.5172 6.57985 15.2186 5.28124C13.92 3.98263 12.3471 3.33332 10.4998 3.33332C8.65262 3.33332 7.0797 3.98263 5.78109 5.28124C4.48248 6.57985 3.83317 8.15277 3.83317 9.99999C3.83317 10.8194 3.96859 11.5903 4.23942 12.3125C4.51025 13.0347 4.88873 13.6805 5.37484 14.25ZM10.4998 10.8333C9.68039 10.8333 8.98942 10.5521 8.42692 9.98957C7.86442 9.42707 7.58317 8.7361 7.58317 7.91666C7.58317 7.09721 7.86442 6.40624 8.42692 5.84374C8.98942 5.28124 9.68039 4.99999 10.4998 4.99999C11.3193 4.99999 12.0103 5.28124 12.5728 5.84374C13.1353 6.40624 13.4165 7.09721 13.4165 7.91666C13.4165 8.7361 13.1353 9.42707 12.5728 9.98957C12.0103 10.5521 11.3193 10.8333 10.4998 10.8333ZM10.4998 18.3333C9.34706 18.3333 8.26373 18.1146 7.24984 17.6771C6.23595 17.2396 5.354 16.6458 4.604 15.8958C3.854 15.1458 3.26025 14.2639 2.82275 13.25C2.38525 12.2361 2.1665 11.1528 2.1665 9.99999C2.1665 8.84721 2.38525 7.76388 2.82275 6.74999C3.26025 5.7361 3.854 4.85416 4.604 4.10416C5.354 3.35416 6.23595 2.76041 7.24984 2.32291C8.26373 1.88541 9.34706 1.66666 10.4998 1.66666C11.6526 1.66666 12.7359 1.88541 13.7498 2.32291C14.7637 2.76041 15.6457 3.35416 16.3957 4.10416C17.1457 4.85416 17.7394 5.7361 18.1769 6.74999C18.6144 7.76388 18.8332 8.84721 18.8332 9.99999C18.8332 11.1528 18.6144 12.2361 18.1769 13.25C17.7394 14.2639 17.1457 15.1458 16.3957 15.8958C15.6457 16.6458 14.7637 17.2396 13.7498 17.6771C12.7359 18.1146 11.6526 18.3333 10.4998 18.3333ZM10.4998 16.6667C11.2359 16.6667 11.9304 16.559 12.5832 16.3437C13.2359 16.1285 13.8332 15.8194 14.3748 15.4167C13.8332 15.0139 13.2359 14.7049 12.5832 14.4896C11.9304 14.2743 11.2359 14.1667 10.4998 14.1667C9.76373 14.1667 9.06928 14.2743 8.4165 14.4896C7.76373 14.7049 7.1665 15.0139 6.62484 15.4167C7.1665 15.8194 7.76373 16.1285 8.4165 16.3437C9.06928 16.559 9.76373 16.6667 10.4998 16.6667ZM10.4998 9.16666C10.8609 9.16666 11.1596 9.0486 11.3957 8.81249C11.6318 8.57638 11.7498 8.27777 11.7498 7.91666C11.7498 7.55555 11.6318 7.25693 11.3957 7.02082C11.1596 6.78471 10.8609 6.66666 10.4998 6.66666C10.1387 6.66666 9.84012 6.78471 9.604 7.02082C9.36789 7.25693 9.24984 7.55555 9.24984 7.91666C9.24984 8.27777 9.36789 8.57638 9.604 8.81249C9.84012 9.0486 10.1387 9.16666 10.4998 9.16666Z" fill="#161F28"/>
</g>
</svg>
