<svg width="21" height="20" viewBox="0 0 21 20" fill="none" xmlns="http://www.w3.org/2000/svg">
<mask id="mask0_40000052_83715" style="mask-type:alpha" maskUnits="userSpaceOnUse" x="0" y="0" width="21" height="20">
<rect x="0.5" width="20" height="20" fill="#D9D9D9"/>
</mask>
<g mask="url(#mask0_40000052_83715)">
<path d="M9.12516 14.1667L13.8335 9.45834L12.6252 8.25001L9.10433 11.7708L7.35433 10.0208L6.16683 11.2083L9.12516 14.1667ZM5.91683 16.6667C4.65294 16.6667 3.57308 16.2292 2.67725 15.3542C1.78141 14.4792 1.3335 13.4097 1.3335 12.1458C1.3335 11.0625 1.65989 10.0972 2.31266 9.25001C2.96544 8.40279 3.81961 7.86112 4.87516 7.62501C5.22239 6.34723 5.91683 5.31251 6.9585 4.52084C8.00016 3.72918 9.18072 3.33334 10.5002 3.33334C12.1252 3.33334 13.5036 3.89932 14.6356 5.03126C15.7675 6.1632 16.3335 7.54168 16.3335 9.16668C17.2918 9.27779 18.087 9.69098 18.7189 10.4063C19.3509 11.1215 19.6668 11.9583 19.6668 12.9167C19.6668 13.9583 19.3022 14.8438 18.5731 15.5729C17.8439 16.3021 16.9585 16.6667 15.9168 16.6667H5.91683ZM5.91683 15H15.9168C16.5002 15 16.9932 14.7986 17.396 14.3958C17.7988 13.9931 18.0002 13.5 18.0002 12.9167C18.0002 12.3333 17.7988 11.8403 17.396 11.4375C16.9932 11.0347 16.5002 10.8333 15.9168 10.8333H14.6668V9.16668C14.6668 8.0139 14.2606 7.03126 13.4481 6.21876C12.6356 5.40626 11.6529 5.00001 10.5002 5.00001C9.34739 5.00001 8.36475 5.40626 7.55225 6.21876C6.73975 7.03126 6.3335 8.0139 6.3335 9.16668H5.91683C5.11127 9.16668 4.42377 9.4514 3.85433 10.0208C3.28489 10.5903 3.00016 11.2778 3.00016 12.0833C3.00016 12.8889 3.28489 13.5764 3.85433 14.1458C4.42377 14.7153 5.11127 15 5.91683 15Z" fill="#161F28"/>
</g>
</svg>
