<svg width="21" height="20" viewBox="0 0 21 20" fill="none" xmlns="http://www.w3.org/2000/svg">
<mask id="mask0_40000052_83701" style="mask-type:alpha" maskUnits="userSpaceOnUse" x="0" y="0" width="21" height="20">
<rect x="0.5" width="20" height="20" fill="#D9D9D9"/>
</mask>
<g mask="url(#mask0_40000052_83701)">
<path d="M5.50016 19.1667C5.04183 19.1667 4.64947 19.0035 4.32308 18.6771C3.99669 18.3507 3.8335 17.9583 3.8335 17.5V8.33334C3.8335 7.87501 3.99669 7.48265 4.32308 7.15626C4.64947 6.82987 5.04183 6.66668 5.50016 6.66668H8.00016V8.33334H5.50016V17.5H15.5002V8.33334H13.0002V6.66668H15.5002C15.9585 6.66668 16.3509 6.82987 16.6772 7.15626C17.0036 7.48265 17.1668 7.87501 17.1668 8.33334V17.5C17.1668 17.9583 17.0036 18.3507 16.6772 18.6771C16.3509 19.0035 15.9585 19.1667 15.5002 19.1667H5.50016ZM9.66683 13.3333V4.02084L8.3335 5.35418L7.16683 4.16668L10.5002 0.833344L13.8335 4.16668L12.6668 5.35418L11.3335 4.02084V13.3333H9.66683Z" fill="#161F28"/>
</g>
</svg>
